<svg id="visual" viewBox="0 0 1920 1080" width="1920" height="1080" xmlns="http://www.w3.org/2000/svg" xmlns:xlink="http://www.w3.org/1999/xlink" version="1.1"><path d="M0 567L53.3 604.5C106.7 642 213.3 717 320 768.2C426.7 819.3 533.3 846.7 640 865C746.7 883.3 853.3 892.7 960 884.8C1066.7 877 1173.3 852 1280 798.8C1386.7 745.7 1493.3 664.3 1600 666C1706.7 667.7 1813.3 752.3 1866.7 794.7L1920 837L1920 1081L1866.7 1081C1813.3 1081 1706.7 1081 1600 1081C1493.3 1081 1386.7 1081 1280 1081C1173.3 1081 1066.7 1081 960 1081C853.3 1081 746.7 1081 640 1081C533.3 1081 426.7 1081 320 1081C213.3 1081 106.7 1081 53.3 1081L0 1081Z" fill="#f5f5f5" stroke-linecap="round" stroke-linejoin="miter"></path></svg>