<svg id="visual" viewBox="0 0 1920 1080" width="1920" height="1080" xmlns="http://www.w3.org/2000/svg" xmlns:xlink="http://www.w3.org/1999/xlink" version="1.1"><path d="M0 691L53.3 701.3C106.7 711.7 213.3 732.3 320 735.2C426.7 738 533.3 723 640 662.5C746.7 602 853.3 496 960 488.2C1066.7 480.3 1173.3 570.7 1280 635.3C1386.7 700 1493.3 739 1600 693.5C1706.7 648 1813.3 518 1866.7 453L1920 388L1920 1081L1866.7 1081C1813.3 1081 1706.7 1081 1600 1081C1493.3 1081 1386.7 1081 1280 1081C1173.3 1081 1066.7 1081 960 1081C853.3 1081 746.7 1081 640 1081C533.3 1081 426.7 1081 320 1081C213.3 1081 106.7 1081 53.3 1081L0 1081Z" fill="#BCDFDF" stroke-linecap="round" stroke-linejoin="miter"></path></svg>