<svg id="visual" viewBox="0 0 900 600" width="900" height="600" xmlns="http://www.w3.org/2000/svg" xmlns:xlink="http://www.w3.org/1999/xlink" version="1.1"><path d="M0 483L21.5 480.7C43 478.3 86 473.7 128.8 480.3C171.7 487 214.3 505 257.2 517.3C300 529.7 343 536.3 385.8 531.5C428.7 526.7 471.3 510.3 514.2 497.2C557 484 600 474 642.8 469.5C685.7 465 728.3 466 771.2 470.5C814 475 857 483 878.5 487L900 491L900 601L878.5 601C857 601 814 601 771.2 601C728.3 601 685.7 601 642.8 601C600 601 557 601 514.2 601C471.3 601 428.7 601 385.8 601C343 601 300 601 257.2 601C214.3 601 171.7 601 128.8 601C86 601 43 601 21.5 601L0 601Z" fill="#182847" stroke-linecap="round" stroke-linejoin="miter"></path></svg>