<svg id="visual" viewBox="0 0 900 600" width="900" height="600" xmlns="http://www.w3.org/2000/svg" xmlns:xlink="http://www.w3.org/1999/xlink" version="1.1"><path d="M0 389L21.5 387C43 385 86 381 128.8 379C171.7 377 214.3 377 257.2 376.7C300 376.3 343 375.7 385.8 389.5C428.7 403.3 471.3 431.7 514.2 426.7C557 421.7 600 383.3 642.8 382.8C685.7 382.3 728.3 419.7 771.2 442.5C814 465.3 857 473.7 878.5 477.8L900 482L900 601L878.5 601C857 601 814 601 771.2 601C728.3 601 685.7 601 642.8 601C600 601 557 601 514.2 601C471.3 601 428.7 601 385.8 601C343 601 300 601 257.2 601C214.3 601 171.7 601 128.8 601C86 601 43 601 21.5 601L0 601Z" fill="#182847" stroke-linecap="round" stroke-linejoin="miter"></path></svg>