<svg id="visual" viewBox="0 0 1920 1080" width="1920" height="1080" xmlns="http://www.w3.org/2000/svg" xmlns:xlink="http://www.w3.org/1999/xlink" version="1.1"><path d="M0 615L64 604.7C128 594.3 256 573.7 384 548.8C512 524 640 495 768 519C896 543 1024 620 1152 621.8C1280 623.7 1408 550.3 1536 543.8C1664 537.3 1792 597.7 1856 627.8L1920 658L1920 1081L1856 1081C1792 1081 1664 1081 1536 1081C1408 1081 1280 1081 1152 1081C1024 1081 896 1081 768 1081C640 1081 512 1081 384 1081C256 1081 128 1081 64 1081L0 1081Z" fill="#f5f5f5" stroke-linecap="round" stroke-linejoin="miter"></path></svg>