<svg id="visual" viewBox="0 0 900 600" width="900" height="600" xmlns="http://www.w3.org/2000/svg" xmlns:xlink="http://www.w3.org/1999/xlink" version="1.1"><path d="M0 283L30 291.7C60 300.3 120 317.7 180 310.7C240 303.7 300 272.3 360 272.7C420 273 480 305 540 305.3C600 305.7 660 274.3 720 259.3C780 244.3 840 245.7 870 246.3L900 247L900 601L870 601C840 601 780 601 720 601C660 601 600 601 540 601C480 601 420 601 360 601C300 601 240 601 180 601C120 601 60 601 30 601L0 601Z" fill="#BCDFDF" stroke-linecap="round" stroke-linejoin="miter"></path></svg>